<?xml version="1.0" encoding="UTF-8" standalone="no"?>
<!-- Created with Inkscape (http://www.inkscape.org/) -->

<svg
   width="100.31426mm"
   height="126.44183mm"
   viewBox="0 0 100.31426 126.44183"
   version="1.1"
   id="svg1440"
   xml:space="preserve"
   inkscape:version="1.2.2 (b0a84865, 2022-12-01)"
   sodipodi:docname="drawing.svg"
   xmlns:inkscape="http://www.inkscape.org/namespaces/inkscape"
   xmlns:sodipodi="http://sodipodi.sourceforge.net/DTD/sodipodi-0.dtd"
   xmlns="http://www.w3.org/2000/svg"
   xmlns:svg="http://www.w3.org/2000/svg"><sodipodi:namedview
     id="namedview1442"
     pagecolor="#ffffff"
     bordercolor="#000000"
     borderopacity="0.25"
     inkscape:showpageshadow="2"
     inkscape:pageopacity="0.0"
     inkscape:pagecheckerboard="0"
     inkscape:deskcolor="#d1d1d1"
     inkscape:document-units="mm"
     showgrid="false"
     inkscape:zoom="1.5485357"
     inkscape:cx="150.14184"
     inkscape:cy="248.94486"
     inkscape:window-width="1920"
     inkscape:window-height="1027"
     inkscape:window-x="0"
     inkscape:window-y="25"
     inkscape:window-maximized="0"
     inkscape:current-layer="g1792" /><defs
     id="defs1437" /><g
     inkscape:label="Layer 1"
     inkscape:groupmode="layer"
     id="layer1"
     transform="translate(-36.329858,-122.26608)"><g
       id="g1792"
       transform="matrix(0.26458333,0,0,0.26458333,-19.453683,79.437407)"><g
         stroke-width="2"
         fill="none"
         stroke-linecap="butt"
         id="g1590"><path
           stroke="#4e357f"
           vector-effect="non-scaling-stroke"
           d="m 589.69,184.54 q -3.15,0.94 -6.49,1.51 -1.67,0.28 -5.96,0.09 -3.23,-0.15 -6.38,0.64 -0.46,0.12 -0.9,-0.06 -0.92,-0.36 -2.9,1.12"
           id="path1444" /><path
           stroke="#8a99b7"
           vector-effect="non-scaling-stroke"
           d="m 567.06,187.84 q 0.5,-1.29 -1.9,-3.23"
           id="path1446" /><path
           stroke="#4e357f"
           vector-effect="non-scaling-stroke"
           d="m 565.16,184.61 q 0.94,-1.07 -1.15,-1.87 a 1.2,1.19 -1.1 0 1 -0.68,-0.65 q -0.5,-1.19 -1.75,-1.12 -0.38,0.03 -0.73,-0.14 -1.12,-0.53 -2.38,-0.7 c -1.91,-0.25 -2.64,1.2 -4.88,0.44 q -0.47,-0.15 -0.96,-0.07 -4.37,0.75 -10.89,-0.08 -1.83,-0.23 -6.92,-0.26 -2.78,-0.01 -6.83,-0.8 -4.67,-0.9 -10.98,-1.12 -9.89,-0.34 -17.57,0.43 c -7.52,0.76 -12.52,0.95 -18.94,0.83 q -0.29,-0.01 -0.46,-0.27 -0.2,-0.34 -0.59,-0.34 c -5.08,-0.01 -10.02,0.55 -15.12,0.12 q -4.45,-0.37 -5.84,0.07 c -6.58,2.09 -12.15,0.89 -18.74,0.09 q -3.08,-0.38 -8.02,-0.29 -4.77,0.09 -9.52,-0.59 c -3.17,-0.45 -7.69,-0.02 -10.9,0.6 q -6.81,1.31 -14.54,-0.55 c -3.67,-0.88 -9.32,-1.54 -13.89,-1.16 q -22.77,1.92 -45.54,0.23 -4.24,-0.31 -7.65,0.24 c -5.43,0.87 -9.79,2.28 -15.95,1.35 q -3.22,-0.5 -6.54,-0.33 -5.66,0.29 -11.31,-0.51 -2.37,-0.34 -4.77,0.13 -6.89,1.33 -13.88,0.58 c -2.63,-0.28 -5.2,0.49 -7.98,0.02 q -9.21,-1.56 -18.52,-1.94 -4.46,-0.18 -8.33,0.97 -4.29,1.27 -8.39,3.07 -0.57,0.25 -0.82,0.82 -0.3,0.68 -1.08,0.97 a 0.59,0.59 0 0 0 -0.2,0.98 l 0.56,0.52 q 0.36,0.35 0.28,-0.23 -0.04,-0.23 0.25,-0.18 0.47,0.09 0.74,0.53"
           id="path1448" /><path
           stroke="#a49bbe"
           vector-effect="non-scaling-stroke"
           d="m 233.75,184.4 -0.13,7.69"
           id="path1450" /><path
           stroke="#4e357f"
           vector-effect="non-scaling-stroke"
           d="m 233.62,192.09 q -2.01,-0.62 -2.55,0.9 -0.17,0.46 -0.65,0.56 -1.16,0.24 -1.53,1.29 -0.56,1.56 -0.61,1.66 -3.34,5.96 -4.16,9.39 -3.14,13.18 -7.03,26.15 -0.14,0.46 -0.08,0.94 0.16,1.31 -0.76,2.26 -0.34,0.36 -0.32,0.85 0.17,5.21 -4.69,7.36"
           id="path1452" /><path
           stroke="#8592b2"
           vector-effect="non-scaling-stroke"
           d="m 567.06,187.84 q -6.72,5.99 -9.46,8.76 -48.62,49.04 -97.35,97.96"
           id="path1454" /><path
           stroke="#72eedc"
           vector-effect="non-scaling-stroke"
           d="m 460.25,294.56 q -0.72,-0.02 -0.62,-0.77 0.02,-0.15 0.11,-0.04 0.16,0.18 0.39,-0.01 0.45,-0.38 -0.13,-0.45 l -13.58,-1.63 q -0.24,-0.03 -0.25,0.22 -0.01,0.17 0,0.38 0.01,0.17 -0.17,0.19 c -1.96,0.19 -5.66,0.26 -7.14,1.59 q -0.86,0.77 -1.65,1.6 -0.2,0.21 -0.44,0.05 l -0.3,-0.2"
           id="path1456" /><path
           stroke="#8592b2"
           vector-effect="non-scaling-stroke"
           d="m 565.16,184.61 -18.83,-0.23 q -0.51,-0.01 -0.88,0.36 L 436.47,295.49"
           id="path1458" /><path
           stroke="#368aa5"
           vector-effect="non-scaling-stroke"
           d="m 436.47,295.49 -90.43,92.75"
           id="path1460" /><path
           stroke="#452975"
           vector-effect="non-scaling-stroke"
           d="m 346.04,388.24 q -0.06,-0.71 1.33,-2.38 1.89,-2.27 4.48,-5.17 a 0.36,0.36 0 0 0 -0.21,-0.59 q -0.99,-0.15 -1.97,-0.66 c -1.34,-0.68 -2.06,-2.08 -3.77,-2.71 q -0.46,-0.17 -0.89,0.07 -2.46,1.42 -5.06,2.54 -2.88,1.25 -4.71,2.81 -5.25,4.46 -9.88,9.59 -1.13,1.25 -4.73,2.93 -0.51,0.23 -0.51,0.79 v 1.05 q 0,0.64 -0.63,0.67 l -2.09,0.09 q -0.41,0.02 -0.7,0.29 -1.59,1.48 -3.08,3.03 -0.37,0.39 -0.81,0.08 l -1.43,-0.97 q -0.28,-0.19 -0.51,0.05 -2.38,2.56 -3.43,5.88 -0.5,1.57 -3.31,3.18 -0.44,0.26 -0.73,-0.17 -0.12,-0.17 -0.19,-0.41 -0.14,-0.44 -0.53,-0.19 -1.58,1 -3.16,1.99 -0.54,0.34 -0.3,0.97 a 0.33,0.32 -80.6 0 1 -0.51,0.37 l -0.63,-0.51 q -0.31,-0.26 -0.7,-0.14 -2.26,0.68 -3.8,-0.87 -0.29,-0.29 0.04,-0.54 2.03,-1.55 2.76,-3.67 0.15,-0.41 -0.62,-0.72"
           id="path1462" /><path
           stroke="#9f94b9"
           vector-effect="non-scaling-stroke"
           d="m 233.62,192.09 -0.04,28.78 q 0,0.51 0.35,0.15 l 35.32,-35.62 q 0.97,-0.98 -0.41,-0.99 l -35.09,-0.01"
           id="path1464" /><path
           stroke="#452975"
           vector-effect="non-scaling-stroke"
           d="m 531.29,352.16 q -2.23,0.92 -4.32,2.02 c -4.27,2.26 -8.61,7.59 -12.07,11.05 q -1.79,1.79 -5.15,4 -5.23,3.46 -8.93,8.64 -2.5,3.5 -6.52,6 a 1.98,1.97 -35.9 0 1 -2.53,-0.4 q -1.16,-1.35 -2.72,-0.71 -0.5,0.2 -0.94,-0.1 -2.04,-1.37 -2.6,-3.74 -0.08,-0.35 -0.31,-0.64 -0.34,-0.43 -0.39,-0.97 -0.05,-0.62 0.57,-1.4 6.66,-8.45 14.21,-16.14 1.87,-1.9 5.93,-7.59 0.42,-0.59 -0.3,-0.71 -1.65,-0.28 -2.83,-1.57 -0.4,-0.44 -0.99,-0.34 -3.68,0.63 -7.24,1.7 -0.08,0.02 -2.11,0.33 -1.38,0.21 -2.35,1.47 -0.63,0.83 -1.24,1.73 -0.24,0.36 -0.66,0.28 -0.51,-0.1 -1.6,0.26"
           id="path1466" /><path
           stroke="#368aa5"
           vector-effect="non-scaling-stroke"
           d="m 486.2,355.33 q 18.05,-18.47 36.32,-36.67 c 14.62,-14.58 28.66,-29.8 43.13,-44.52 a 2.96,2.94 -22.5 0 0 0.84,-2.01 l 0.34,-20.43 q 0.02,-1.46 -1,-0.42 l -21.76,22.08"
           id="path1468" /><path
           stroke="#452975"
           vector-effect="non-scaling-stroke"
           d="m 544.07,273.36 q -0.3,-0.77 -1.39,0.07 -0.4,0.3 -0.79,-0.03 -1.61,-1.42 -3.03,-0.26 -2.84,2.32 -6.01,4.22 -2.52,1.5 -7.57,6.69 c -1.8,1.86 -2.86,4.74 -5.5,6.45 q -2.81,1.81 -3.61,2.58 c -2.55,2.45 -5.2,4.72 -7.63,7.31 q -1.65,1.75 -4.18,2.14 -0.47,0.07 -0.82,0.4 -1.71,1.6 -5.88,4.23 -4.33,2.74 -7.86,2.89 -0.65,0.03 -0.98,0.59 -0.96,1.63 -2.66,2.26 -0.24,0.08 -0.28,-0.16 -0.03,-0.13 0.04,-0.24"
           id="path1470" /><path
           stroke="#368aa5"
           vector-effect="non-scaling-stroke"
           d="m 485.92,312.5 48.9,-49.54"
           id="path1472" /><path
           stroke="#8592b2"
           vector-effect="non-scaling-stroke"
           d="m 534.82,262.96 q 15.34,-15.37 30.06,-30.34 1.38,-1.41 1.43,-3.36 0.27,-10.51 0.21,-21.01 a 0.5,0.49 -23 0 0 -0.85,-0.34 l -54.81,55.24"
           id="path1474" /><path
           stroke="#368aa5"
           vector-effect="non-scaling-stroke"
           d="M 510.86,263.15 322.39,456.06"
           id="path1476" /><path
           stroke="#452975"
           vector-effect="non-scaling-stroke"
           d="m 322.39,456.06 -0.34,-0.55 q -0.23,-0.37 0.05,-0.7 l 2.2,-2.55 q 0.22,-0.25 0.01,-0.51 L 324,451.38 q -0.32,-0.39 -0.38,-0.88 l -0.4,-3.24 q -0.08,-0.6 -0.67,-0.76 l -6.43,-1.66 q -0.43,-0.11 -0.78,0.16 -0.59,0.46 -1.6,0.45"
           id="path1478" /><path
           stroke="#368aa5"
           vector-effect="non-scaling-stroke"
           d="M 313.74,445.45 460.25,294.56"
           id="path1480" /><path
           stroke="#3a6d9d"
           vector-effect="non-scaling-stroke"
           d="m 302.03,519.19 -29.91,30.3"
           id="path1482" /><path
           stroke="#475498"
           vector-effect="non-scaling-stroke"
           d="m 272.12,549.49 -21.93,22.53"
           id="path1484" /><path
           stroke="#543e92"
           vector-effect="non-scaling-stroke"
           d="m 250.19,572.02 -16.09,16.34 a 2.03,2.02 67.3 0 0 -0.58,1.42 l -0.1,21.71 a 0.47,0.47 0 0 0 0.8,0.34 l 34.67,-34.21"
           id="path1486" /><path
           stroke="#475498"
           vector-effect="non-scaling-stroke"
           d="m 268.89,577.62 22.74,-23.03"
           id="path1488" /><path
           stroke="#3a6d9d"
           vector-effect="non-scaling-stroke"
           d="M 291.63,554.59 317.75,527.8"
           id="path1490" /><path
           stroke="#3286a0"
           vector-effect="non-scaling-stroke"
           d="M 346.04,388.24 234.32,502.3 q -0.59,0.61 -0.59,1.46 l -0.07,22.75 a 0.27,0.26 68.9 0 0 0.44,0.2 q 4.51,-4.14 8.68,-8.43 18.09,-18.59 36.46,-36.9 c 11.81,-11.8 23.05,-23.91 34.5,-35.93"
           id="path1492" /><path
           stroke="#3a6d9d"
           vector-effect="non-scaling-stroke"
           d="m 260,519.19 q -12.29,12.36 -24.45,25.11 c -0.84,0.88 -1.79,2.59 -1.83,4.1 q -0.22,10.33 -0.14,20.13 0.01,1.16 0.83,0.33 l 48.34,-48.76"
           id="path1494" /><path
           stroke="#72eedc"
           vector-effect="non-scaling-stroke"
           d="m 534.82,262.96 q -5.94,-3.07 -11.06,-1.17 -1.45,0.54 -4.7,-0.2 a 1.01,0.88 42.5 0 0 -0.41,-0.01 l -7.79,1.57"
           id="path1496" /><path
           stroke="#3286a0"
           vector-effect="non-scaling-stroke"
           d="M 486.2,355.33 317.75,527.8"
           id="path1498" /><path
           stroke="#2bcecd"
           vector-effect="non-scaling-stroke"
           d="m 317.75,527.8 q -1.07,-0.11 -1.55,-0.65 -0.3,-0.34 -0.72,-0.49 l -12.11,-4.42 q -0.45,-0.17 -0.59,-0.63 l -0.75,-2.42"
           id="path1500" /><path
           stroke="#3286a0"
           vector-effect="non-scaling-stroke"
           d="M 302.03,519.19 544.07,273.36"
           id="path1502" /><path
           stroke="#3286a0"
           vector-effect="non-scaling-stroke"
           d="M 485.92,312.5 C 418.43,381.83 359.97,442.1 282.75,520.1"
           id="path1504" /><path
           stroke="#2bcecd"
           vector-effect="non-scaling-stroke"
           d="m 282.75,520.1 c -1,0.23 -1.47,0.59 -2.22,1.49 q -0.81,0.97 -2.13,0.14 -0.42,-0.27 -0.92,-0.23 -7.52,0.69 -13.46,-0.39 -1.74,-0.32 -4.02,-1.92"
           id="path1506" /><path
           stroke="#3286a0"
           vector-effect="non-scaling-stroke"
           d="m 260,519.19 62.39,-63.13"
           id="path1508" /><path
           stroke="#3f9cc5"
           vector-effect="non-scaling-stroke"
           d="m 291.63,554.59 q -5.76,-1.55 -11.16,-3.69 c -2.79,-1.11 -5.38,-0.72 -8.35,-1.41"
           id="path1510" /><path
           stroke="#5a6cba"
           vector-effect="non-scaling-stroke"
           d="m 268.89,577.62 q -3.18,0.2 -6.57,-0.49 -1.53,-0.32 -3.4,-1.43 c -3.04,-1.81 -6.02,-1.59 -8.73,-3.68"
           id="path1512" /><path
           stroke="#8592b2"
           vector-effect="non-scaling-stroke"
           d="m 253.88,219.84 -19.32,18.89 q -0.9,0.88 -0.91,2.13 l -0.12,22.66 a 0.31,0.3 68.3 0 0 0.52,0.23 l 41.69,-41.98"
           id="path1514" /><path
           stroke="#9f94b9"
           vector-effect="non-scaling-stroke"
           d="m 275.74,221.77 36.94,-36.85 q 0.5,-0.49 -0.2,-0.49 l -22.53,-0.04 a 1.44,1.42 -67.3 0 0 -1.01,0.42 l -35.06,35.03"
           id="path1516" /><path
           stroke="#dbf8f1"
           vector-effect="non-scaling-stroke"
           d="m 275.74,221.77 c -0.94,-2.63 -3.44,-2.64 -5.49,-3.35 q -3.14,-1.09 -6.46,-0.93 -1.41,0.07 -4.36,1.34 -2.77,1.18 -5.55,1.01"
           id="path1518" /><path
           stroke="#8592b2"
           vector-effect="non-scaling-stroke"
           d="m 273.79,243.43 -25.94,26.01 q -2.12,2.13 0.88,2.11 l 19.82,-0.09 a 0.9,0.88 21.6 0 0 0.64,-0.27 l 22.04,-22.21"
           id="path1520" /><path
           stroke="#9793b6"
           vector-effect="non-scaling-stroke"
           d="m 291.23,248.98 64.21,-64.16 a 0.24,0.24 0 0 0 -0.17,-0.41 l -22.53,-0.08 a 1.19,1.16 22.5 0 0 -0.82,0.33 l -58.13,58.77"
           id="path1522" /><path
           stroke="#d3f8ee"
           vector-effect="non-scaling-stroke"
           d="m 291.23,248.98 q -8.43,-6.54 -17.44,-5.55"
           id="path1524" /><path
           stroke="#8592b2"
           vector-effect="non-scaling-stroke"
           d="m 346.65,212.74 -57.2,57.55 q -1.2,1.21 0.5,1.2 l 21.29,-0.17 a 2.21,2.21 0 0 0 1.55,-0.66 l 54.54,-54.85"
           id="path1526" /><path
           stroke="#9f94b9"
           vector-effect="non-scaling-stroke"
           d="m 367.33,215.81 29.85,-30.59 q 0.93,-0.95 -0.4,-0.95 l -21.7,0.14 q -0.51,0 -0.87,0.37 l -27.56,27.96"
           id="path1528" /><path
           stroke="#dbf8f1"
           vector-effect="non-scaling-stroke"
           d="m 367.33,215.81 q -3.11,-0.91 -6.26,-2.53 -2.92,-1.51 -4.92,-1.74 -2.66,-0.31 -5.32,0.03 -0.91,0.11 -1.96,0.79 -1.63,1.05 -2.22,0.38"
           id="path1530" /><path
           stroke="#8592b2"
           vector-effect="non-scaling-stroke"
           d="m 373.88,228.08 -42.29,42.93 q -0.4,0.41 0.17,0.41 l 21.98,0.04 a 1.41,1.4 -67 0 0 0.98,-0.4 l 38.6,-38.53"
           id="path1532" /><path
           stroke="#9793b6"
           vector-effect="non-scaling-stroke"
           d="m 393.32,232.53 47.45,-47.56 a 0.41,0.41 0 0 0 -0.29,-0.7 h -22.51 q -1.18,0 -2,0.84 l -42.09,42.97"
           id="path1534" /><path
           stroke="#d3f8ee"
           vector-effect="non-scaling-stroke"
           d="m 393.32,232.53 q -6.27,-2.45 -13.93,-2.45 -2.98,0.01 -5.51,-2"
           id="path1536" /><path
           stroke="#8592b2"
           vector-effect="non-scaling-stroke"
           d="m 429.83,214.55 -55.78,56.39 a 0.32,0.31 21.9 0 0 0.23,0.53 l 22.19,-0.02 q 0.52,0 0.88,-0.36 l 53.35,-53.4"
           id="path1538" /><path
           stroke="#9f94b9"
           vector-effect="non-scaling-stroke"
           d="m 450.7,217.69 32.36,-32.55 a 0.42,0.41 -67.4 0 0 -0.29,-0.71 h -22.02 q -0.45,0 -0.78,0.31 l -30.14,29.81"
           id="path1540" /><path
           stroke="#dbf8f1"
           vector-effect="non-scaling-stroke"
           d="m 450.7,217.69 q -0.6,-2.21 -2.44,-2.95 -0.13,-0.05 -0.16,0.08 -0.04,0.15 -0.15,0.21 -0.12,0.07 -0.34,-0.05 -2.59,-1.34 -5.26,-0.71 -3.25,0.76 -3.34,0.77 -2.78,0.38 -5.56,1 a 1.08,1.07 52 0 1 -0.71,-0.09 l -2.91,-1.4"
           id="path1542" /><path
           stroke="#8592b2"
           vector-effect="non-scaling-stroke"
           d="m 447.97,239.31 -32.2,32.25 a 0.76,0.76 0 0 0 0.35,1.27 q 7.34,1.85 12.01,7.79 a 1.64,1.63 48.4 0 0 2.44,0.15 L 477.32,234"
           id="path1544" /><path
           stroke="#9793b6"
           vector-effect="non-scaling-stroke"
           d="m 477.32,234 49.62,-49.24 a 0.25,0.24 23.2 0 0 -0.17,-0.42 l -23.42,-0.01 a 1.21,1.19 22.2 0 0 -0.85,0.35 l -54.53,54.63"
           id="path1546" /><path
           stroke="#d3f8ee"
           vector-effect="non-scaling-stroke"
           d="m 477.32,234 0.16,-0.99 q 0.06,-0.37 -0.3,-0.26 l -0.35,0.11 q -0.17,0.05 -0.21,-0.12 -0.03,-0.15 -0.13,-0.24 -0.15,-0.11 -0.5,-0.02 -3.17,0.77 -8.24,1.11 -3.79,0.26 -10.65,1.69 a 1.59,1.56 15.5 0 0 -0.83,0.46 q -3.42,3.7 -8.3,3.57"
           id="path1548" /><path
           stroke="#543e92"
           vector-effect="non-scaling-stroke"
           d="m 299.63,564.97 c -16.77,16.57 -33.39,33.86 -50.16,49.88 a 0.81,0.81 0 0 0 0.56,1.4 l 21.71,-0.06 a 2.26,2.24 -67.1 0 0 1.58,-0.65 l 44,-43.77"
           id="path1550" /><path
           stroke="#3c659b"
           vector-effect="non-scaling-stroke"
           d="m 317.32,571.77 42.69,-44.06 a 0.55,0.55 0 0 0 -0.29,-0.92 q -8.53,-1.54 -12.31,-9.27 a 0.45,0.45 0 0 0 -0.71,-0.13 q -7.42,6.92 -14.44,14.11 c -10.89,11.14 -22.05,22.04 -32.63,33.47"
           id="path1552" /><path
           stroke="#4f7ebd"
           vector-effect="non-scaling-stroke"
           d="m 317.32,571.77 q -1.88,-0.57 -3.57,-1.22 -1.62,-0.61 -3.61,-1.02 -5.73,-1.2 -10.51,-4.56"
           id="path1554" /><path
           stroke="#543e92"
           vector-effect="non-scaling-stroke"
           d="m 380.31,570.35 -43.98,44.26 q -1.55,1.56 0.65,1.56 l 21.1,-0.03 a 3.84,3.82 22.4 0 0 2.71,-1.12 l 37.49,-37.64"
           id="path1556" /><path
           stroke="#3c659b"
           vector-effect="non-scaling-stroke"
           d="m 398.28,577.38 49.22,-49.15 a 0.34,0.34 0 0 0 -0.24,-0.58 l -23.35,0.1 a 2.21,2.18 21.9 0 0 -1.53,0.64 l -42.07,41.96"
           id="path1558" /><path
           stroke="#4f7ebd"
           vector-effect="non-scaling-stroke"
           d="m 398.28,577.38 -17.97,-7.03"
           id="path1560" /><path
           stroke="#543e92"
           vector-effect="non-scaling-stroke"
           d="m 434.5,559.62 -54.9,55.05 q -1.57,1.57 0.66,1.57 l 21.97,0.02 a 1.64,1.61 -67.1 0 0 1.15,-0.48 l 48.35,-48.46"
           id="path1562" /><path
           stroke="#3a6d9d"
           vector-effect="non-scaling-stroke"
           d="m 451.73,567.32 38.94,-39.31 a 0.18,0.17 -67.2 0 0 -0.12,-0.3 l -22.07,-0.24 a 3.28,3.25 22.7 0 0 -2.32,0.94 l -31.66,31.21"
           id="path1564" /><path
           stroke="#4d86bf"
           vector-effect="non-scaling-stroke"
           d="m 451.73,567.32 -10.1,-3.23 a 0.88,0.65 -8.3 0 1 -0.13,-0.07 l -7,-4.4"
           id="path1566" /><path
           stroke="#543e92"
           vector-effect="non-scaling-stroke"
           d="m 356.8,550.16 q -28.73,29.05 -57.79,58.44 c -1.66,1.68 -4.8,4.17 -6.64,6.88 a 0.48,0.47 17.4 0 0 0.39,0.74 l 21.72,0.05 q 1.63,0 2.78,-1.15 l 55.5,-55.62"
           id="path1568" /><path
           stroke="#3a6d9d"
           vector-effect="non-scaling-stroke"
           d="m 372.76,559.5 31.18,-31.22 a 0.28,0.27 22.3 0 0 -0.2,-0.47 h -24.01 a 0.73,0.72 22.2 0 0 -0.51,0.21 l -22.42,22.14"
           id="path1570" /><path
           stroke="#4d86bf"
           vector-effect="non-scaling-stroke"
           d="M 372.76,559.5 356.8,550.16"
           id="path1572" /><path
           stroke="#543e92"
           vector-effect="non-scaling-stroke"
           d="m 466.69,570.92 -44.34,44.71 a 0.38,0.37 22.3 0 0 0.27,0.64 q 9.99,0.01 20.13,-0.07 c 2.32,-0.02 3.54,0.08 5.29,-1.66 7.26,-7.19 14.1,-14.71 21.54,-21.78 q 8.56,-8.14 16.69,-16.71"
           id="path1574" /><path
           stroke="#3c659b"
           vector-effect="non-scaling-stroke"
           d="m 486.27,576.05 46.95,-47.5 q 0.56,-0.57 -0.24,-0.58 l -22.4,-0.33 a 2.35,2.35 0 0 0 -1.72,0.7 l -42.17,42.58"
           id="path1576" /><path
           stroke="#4f7ebd"
           vector-effect="non-scaling-stroke"
           d="m 486.27,576.05 -5.99,-2.9 q -0.04,-0.02 -0.08,-0.01 -0.15,0.03 -0.24,0.17 -0.14,0.22 -0.38,0.13 -6.22,-2.3 -12.89,-2.52"
           id="path1578" /><path
           stroke="#543e92"
           vector-effect="non-scaling-stroke"
           d="m 509.44,571.59 q -15.37,15.47 -30.67,31.1 c -3.85,3.94 -8.78,8.01 -13.04,12.28 a 0.76,0.76 0 0 0 0.54,1.3 l 20.7,-0.03 a 4.76,4.74 22.3 0 0 3.37,-1.4 l 39.57,-39.7"
           id="path1580" /><path
           stroke="#3a6d9d"
           vector-effect="non-scaling-stroke"
           d="m 529.91,575.14 35.06,-34.98 a 4.42,4.39 67.7 0 0 1.3,-3.13 l -0.01,-8.66 q 0,-0.64 -0.64,-0.65 l -12,-0.03 q -0.59,0 -1.01,0.42 l -43.17,43.48"
           id="path1582" /><path
           stroke="#4d86bf"
           vector-effect="non-scaling-stroke"
           d="m 529.91,575.14 q -9.53,-2.51 -13.93,-3.34 -2.27,-0.43 -6.54,-0.21"
           id="path1584" /><path
           stroke="#543e92"
           vector-effect="non-scaling-stroke"
           d="m 565.67,558.89 -57.06,56.22 a 0.85,0.83 51.5 0 0 -0.11,1.07 q 0.05,0.09 0.33,0.23 0.16,0.08 0.37,0.07 10.08,-0.23 20.19,-0.4 c 2.45,-0.04 3.9,-1.35 5.47,-2.97 q 13.46,-13.91 27.06,-27.68 1.92,-1.93 3.63,-4.15 a 1.4,1.39 -25 0 0 0.29,-0.79 l 0.82,-21.17 a 0.58,0.58 0 0 0 -0.99,-0.43"
           id="path1586" /><path
           stroke="#543e92"
           vector-effect="non-scaling-stroke"
           d="m 566.67,602.79 a 0.89,0.89 0 0 0 -1.49,-0.68 l -13.35,12.58 a 0.89,0.89 0 0 0 0.59,1.53 l 12.8,0.21 a 0.89,0.89 0 0 0 0.9,-0.85 l 0.55,-12.79"
           id="path1588" /></g><path
         fill="#533c84"
         d="m 589.69,184.54 q -3.15,0.94 -6.49,1.51 -1.67,0.28 -5.96,0.09 -3.23,-0.15 -6.38,0.64 -0.46,0.12 -0.9,-0.06 -0.92,-0.36 -2.9,1.12 0.5,-1.29 -1.9,-3.23 0.94,-1.07 -1.15,-1.87 a 1.2,1.19 -1.1 0 1 -0.68,-0.65 q -0.5,-1.19 -1.75,-1.12 -0.38,0.03 -0.73,-0.14 -1.12,-0.53 -2.38,-0.7 c -1.91,-0.25 -2.64,1.2 -4.88,0.44 q -0.47,-0.15 -0.96,-0.07 -4.37,0.75 -10.89,-0.08 -1.83,-0.23 -6.92,-0.26 -2.78,-0.01 -6.83,-0.8 -4.67,-0.9 -10.98,-1.12 -9.89,-0.34 -17.57,0.43 c -7.52,0.76 -12.52,0.95 -18.94,0.83 q -0.29,-0.01 -0.46,-0.27 -0.2,-0.34 -0.59,-0.34 c -5.08,-0.01 -10.02,0.55 -15.12,0.12 q -4.45,-0.37 -5.84,0.07 c -6.58,2.09 -12.15,0.89 -18.74,0.09 q -3.08,-0.38 -8.02,-0.29 -4.77,0.09 -9.52,-0.59 c -3.17,-0.45 -7.69,-0.02 -10.9,0.6 q -6.81,1.31 -14.54,-0.55 c -3.67,-0.88 -9.32,-1.54 -13.89,-1.16 q -22.77,1.92 -45.54,0.23 -4.24,-0.31 -7.65,0.24 c -5.43,0.87 -9.79,2.28 -15.95,1.35 q -3.22,-0.5 -6.54,-0.33 -5.66,0.29 -11.31,-0.51 -2.37,-0.34 -4.77,0.13 -6.89,1.33 -13.88,0.58 c -2.63,-0.28 -5.2,0.49 -7.98,0.02 q -9.21,-1.56 -18.52,-1.94 -4.46,-0.18 -8.33,0.97 -4.29,1.27 -8.39,3.07 -0.57,0.25 -0.82,0.82 -0.3,0.68 -1.08,0.97 a 0.59,0.59 0 0 0 -0.2,0.98 l 0.56,0.52 q 0.36,0.35 0.28,-0.23 -0.04,-0.23 0.25,-0.18 0.47,0.09 0.74,0.53 l -0.13,7.69 q -2.01,-0.62 -2.55,0.9 -0.17,0.46 -0.65,0.56 -1.16,0.24 -1.53,1.29 -0.56,1.56 -0.61,1.66 -3.34,5.96 -4.16,9.39 -3.14,13.18 -7.03,26.15 -0.14,0.46 -0.08,0.94 0.16,1.31 -0.76,2.26 -0.34,0.36 -0.32,0.85 0.17,5.21 -4.69,7.36 -0.01,-35.13 -0.02,-70.31 0,-3.47 1.22,-5.55 c 1.86,-3.18 4.62,-5.7 8.64,-5.7 q 178.91,-0.05 357.81,0.04 c 4.6,0 7.58,2.38 9.81,6.04 q 1.15,1.89 1.11,4.85 -0.06,5.79 -0.12,11.72 z"
         id="path1592"
         style="fill:#412570;fill-opacity:1" /><path
         fill="#482d7a"
         d="m 565.16,184.61 -18.83,-0.23 q -0.51,-0.01 -0.88,0.36 l -108.98,110.75 -90.43,92.75 q -0.06,-0.71 1.33,-2.38 1.89,-2.27 4.48,-5.17 a 0.36,0.36 0 0 0 -0.21,-0.59 q -0.99,-0.15 -1.97,-0.66 c -1.34,-0.68 -2.06,-2.08 -3.77,-2.71 q -0.46,-0.17 -0.89,0.07 -2.46,1.42 -5.06,2.54 -2.88,1.25 -4.71,2.81 -5.25,4.46 -9.88,9.59 -1.13,1.25 -4.73,2.93 -0.51,0.23 -0.51,0.79 v 1.05 q 0,0.64 -0.63,0.67 l -2.09,0.09 q -0.41,0.02 -0.7,0.29 -1.59,1.48 -3.08,3.03 -0.37,0.39 -0.81,0.08 l -1.43,-0.97 q -0.28,-0.19 -0.51,0.05 -2.38,2.56 -3.43,5.88 -0.5,1.57 -3.31,3.18 -0.44,0.26 -0.73,-0.17 -0.12,-0.17 -0.19,-0.41 -0.14,-0.44 -0.53,-0.19 -1.58,1 -3.16,1.99 -0.54,0.34 -0.3,0.97 a 0.33,0.32 -80.6 0 1 -0.51,0.37 l -0.63,-0.51 q -0.31,-0.26 -0.7,-0.14 -2.26,0.68 -3.8,-0.87 -0.29,-0.29 0.04,-0.54 2.03,-1.55 2.76,-3.67 0.15,-0.41 -0.62,-0.72 c 33.78,-34.46 67.56,-68.89 101.11,-103.57 q 1.69,-1.75 2.17,-3.7 a 1.59,1.59 0 0 0 -1.53,-1.97 q -87.16,-0.32 -173.6,-0.47 -3.99,-0.01 -6.32,-1.25 -6.15,-3.29 -6.28,-10.96 -0.17,-9.91 -0.07,-39.55 4.86,-2.15 4.69,-7.36 -0.02,-0.49 0.32,-0.85 0.92,-0.95 0.76,-2.26 -0.06,-0.48 0.08,-0.94 3.89,-12.97 7.03,-26.15 0.82,-3.43 4.16,-9.39 0.05,-0.1 0.61,-1.66 0.37,-1.05 1.53,-1.29 0.48,-0.1 0.65,-0.56 0.54,-1.52 2.55,-0.9 l -0.04,28.78 q 0,0.51 0.35,0.15 l 35.32,-35.62 q 0.97,-0.98 -0.41,-0.99 l -35.09,-0.01 q -0.27,-0.44 -0.74,-0.53 -0.29,-0.05 -0.25,0.18 0.08,0.58 -0.28,0.23 l -0.56,-0.52 a 0.59,0.59 0 0 1 0.2,-0.98 q 0.78,-0.29 1.08,-0.97 0.25,-0.57 0.82,-0.82 4.1,-1.8 8.39,-3.07 3.87,-1.15 8.33,-0.97 9.31,0.38 18.52,1.94 c 2.78,0.47 5.35,-0.3 7.98,-0.02 q 6.99,0.75 13.88,-0.58 2.4,-0.47 4.77,-0.13 5.65,0.8 11.31,0.51 3.32,-0.17 6.54,0.33 c 6.16,0.93 10.52,-0.48 15.95,-1.35 q 3.41,-0.55 7.65,-0.24 22.77,1.69 45.54,-0.23 c 4.57,-0.38 10.22,0.28 13.89,1.16 q 7.73,1.86 14.54,0.55 c 3.21,-0.62 7.73,-1.05 10.9,-0.6 q 4.75,0.68 9.52,0.59 4.94,-0.09 8.02,0.29 c 6.59,0.8 12.16,2 18.74,-0.09 q 1.39,-0.44 5.84,-0.07 c 5.1,0.43 10.04,-0.13 15.12,-0.12 q 0.39,0 0.59,0.34 0.17,0.26 0.46,0.27 c 6.42,0.12 11.42,-0.07 18.94,-0.83 q 7.68,-0.77 17.57,-0.43 6.31,0.22 10.98,1.12 4.05,0.79 6.83,0.8 5.09,0.03 6.92,0.26 6.52,0.83 10.89,0.08 0.49,-0.08 0.96,0.07 c 2.24,0.76 2.97,-0.69 4.88,-0.44 q 1.26,0.17 2.38,0.7 0.35,0.17 0.73,0.14 1.25,-0.07 1.75,1.12 a 1.2,1.19 -1.1 0 0 0.68,0.65 q 2.09,0.8 1.15,1.87 z m -311.28,35.23 -19.32,18.89 q -0.9,0.88 -0.91,2.13 l -0.12,22.66 a 0.31,0.3 68.3 0 0 0.52,0.23 l 41.69,-41.98 36.94,-36.85 q 0.5,-0.49 -0.2,-0.49 l -22.53,-0.04 a 1.44,1.42 -67.3 0 0 -1.01,0.42 z m 19.91,23.59 -25.94,26.01 q -2.12,2.13 0.88,2.11 l 19.82,-0.09 a 0.9,0.88 21.6 0 0 0.64,-0.27 l 22.04,-22.21 64.21,-64.16 a 0.24,0.24 0 0 0 -0.17,-0.41 l -22.53,-0.08 a 1.19,1.16 22.5 0 0 -0.82,0.33 z m 72.86,-30.69 -57.2,57.55 q -1.2,1.21 0.5,1.2 l 21.29,-0.17 a 2.21,2.21 0 0 0 1.55,-0.66 l 54.54,-54.85 29.85,-30.59 q 0.93,-0.95 -0.4,-0.95 l -21.7,0.14 q -0.51,0 -0.87,0.37 z m 27.23,15.34 -42.29,42.93 q -0.4,0.41 0.17,0.41 l 21.98,0.04 a 1.41,1.4 -67 0 0 0.98,-0.4 l 38.6,-38.53 47.45,-47.56 a 0.41,0.41 0 0 0 -0.29,-0.7 h -22.51 q -1.18,0 -2,0.84 z m 55.95,-13.53 -55.78,56.39 a 0.32,0.31 21.9 0 0 0.23,0.53 l 22.19,-0.02 q 0.52,0 0.88,-0.36 l 53.35,-53.4 32.36,-32.55 a 0.42,0.41 -67.4 0 0 -0.29,-0.71 h -22.02 q -0.45,0 -0.78,0.31 z m 18.14,24.76 -32.2,32.25 a 0.76,0.76 0 0 0 0.35,1.27 q 7.34,1.85 12.01,7.79 a 1.64,1.63 48.4 0 0 2.44,0.15 L 477.32,234 526.94,184.76 a 0.25,0.24 23.2 0 0 -0.17,-0.42 l -23.42,-0.01 a 1.21,1.19 22.2 0 0 -0.85,0.35 z"
         id="path1594"
         style="fill:#412570;fill-opacity:1" /><path
         fill="#f5faf8"
         d="m 233.62,192.09 0.13,-7.69 35.09,0.01 q 1.38,0.01 0.41,0.99 l -35.32,35.62 q -0.35,0.36 -0.35,-0.15 z"
         id="path1596" /><path
         fill="#f5faf8"
         d="m 275.74,221.77 c -0.94,-2.63 -3.44,-2.64 -5.49,-3.35 q -3.14,-1.09 -6.46,-0.93 -1.41,0.07 -4.36,1.34 -2.77,1.18 -5.55,1.01 l 35.06,-35.03 a 1.44,1.42 -67.3 0 1 1.01,-0.42 l 22.53,0.04 q 0.7,0 0.2,0.49 z"
         id="path1598" /><path
         fill="#e5f9f2"
         d="m 291.23,248.98 q -8.43,-6.54 -17.44,-5.55 l 58.13,-58.77 a 1.19,1.16 22.5 0 1 0.82,-0.33 l 22.53,0.08 a 0.24,0.24 0 0 1 0.17,0.41 z"
         id="path1600" /><path
         fill="#f5faf8"
         d="m 367.33,215.81 q -3.11,-0.91 -6.26,-2.53 -2.92,-1.51 -4.92,-1.74 -2.66,-0.31 -5.32,0.03 -0.91,0.11 -1.96,0.79 -1.63,1.05 -2.22,0.38 l 27.56,-27.96 q 0.36,-0.37 0.87,-0.37 l 21.7,-0.14 q 1.33,0 0.4,0.95 z"
         id="path1602" /><path
         fill="#e5f9f2"
         d="m 393.32,232.53 q -6.27,-2.45 -13.93,-2.45 -2.98,0.01 -5.51,-2 l 42.09,-42.97 q 0.82,-0.84 2,-0.84 h 22.51 a 0.41,0.41 0 0 1 0.29,0.7 z"
         id="path1604" /><path
         fill="#f5faf8"
         d="m 450.7,217.69 q -0.6,-2.21 -2.44,-2.95 -0.13,-0.05 -0.16,0.08 -0.04,0.15 -0.15,0.21 -0.12,0.07 -0.34,-0.05 -2.59,-1.34 -5.26,-0.71 -3.25,0.76 -3.34,0.77 -2.78,0.38 -5.56,1 a 1.08,1.07 52 0 1 -0.71,-0.09 l -2.91,-1.4 30.14,-29.81 q 0.33,-0.31 0.78,-0.31 h 22.02 a 0.42,0.41 -67.4 0 1 0.29,0.71 z"
         id="path1606" /><path
         fill="#e5f9f2"
         d="m 477.32,234 0.16,-0.99 q 0.06,-0.37 -0.3,-0.26 l -0.35,0.11 q -0.17,0.05 -0.21,-0.12 -0.03,-0.15 -0.13,-0.24 -0.15,-0.11 -0.5,-0.02 -3.17,0.77 -8.24,1.11 -3.79,0.26 -10.65,1.69 a 1.59,1.56 15.5 0 0 -0.83,0.46 q -3.42,3.7 -8.3,3.57 l 54.53,-54.63 a 1.21,1.19 22.2 0 1 0.85,-0.35 l 23.42,0.01 a 0.25,0.24 23.2 0 1 0.17,0.42 z"
         id="path1608" /><path
         fill="#c1f6e9"
         d="m 565.16,184.61 q 2.4,1.94 1.9,3.23 -6.72,5.99 -9.46,8.76 -48.62,49.04 -97.35,97.96 -0.72,-0.02 -0.62,-0.77 0.02,-0.15 0.11,-0.04 0.16,0.18 0.39,-0.01 0.45,-0.38 -0.13,-0.45 l -13.58,-1.63 q -0.24,-0.03 -0.25,0.22 -0.01,0.17 0,0.38 0.01,0.17 -0.17,0.19 c -1.96,0.19 -5.66,0.26 -7.14,1.59 q -0.86,0.77 -1.65,1.6 -0.2,0.21 -0.44,0.05 l -0.3,-0.2 108.98,-110.75 q 0.37,-0.37 0.88,-0.36 z"
         id="path1610" /><path
         fill="#482d7a"
         d="m 589.69,184.54 q -0.02,52.48 -0.24,105.15 c -0.01,2.27 -0.93,4.12 -2.36,5.62 q -22.85,24.13 -55.8,56.85 -2.23,0.92 -4.32,2.02 c -4.27,2.26 -8.61,7.59 -12.07,11.05 q -1.79,1.79 -5.15,4 -5.23,3.46 -8.93,8.64 -2.5,3.5 -6.52,6 a 1.98,1.97 -35.9 0 1 -2.53,-0.4 q -1.16,-1.35 -2.72,-0.71 -0.5,0.2 -0.94,-0.1 -2.04,-1.37 -2.6,-3.74 -0.08,-0.35 -0.31,-0.64 -0.34,-0.43 -0.39,-0.97 -0.05,-0.62 0.57,-1.4 6.66,-8.45 14.21,-16.14 1.87,-1.9 5.93,-7.59 0.42,-0.59 -0.3,-0.71 -1.65,-0.28 -2.83,-1.57 -0.4,-0.44 -0.99,-0.34 -3.68,0.63 -7.24,1.7 -0.08,0.02 -2.11,0.33 -1.38,0.21 -2.35,1.47 -0.63,0.83 -1.24,1.73 -0.24,0.36 -0.66,0.28 -0.51,-0.1 -1.6,0.26 18.05,-18.47 36.32,-36.67 c 14.62,-14.58 28.66,-29.8 43.13,-44.52 a 2.96,2.94 -22.5 0 0 0.84,-2.01 l 0.34,-20.43 q 0.02,-1.46 -1,-0.42 l -21.76,22.08 q -0.3,-0.77 -1.39,0.07 -0.4,0.3 -0.79,-0.03 -1.61,-1.42 -3.03,-0.26 -2.84,2.32 -6.01,4.22 -2.52,1.5 -7.57,6.69 c -1.8,1.86 -2.86,4.74 -5.5,6.45 q -2.81,1.81 -3.61,2.58 c -2.55,2.45 -5.2,4.72 -7.63,7.31 q -1.65,1.75 -4.18,2.14 -0.47,0.07 -0.82,0.4 -1.71,1.6 -5.88,4.23 -4.33,2.74 -7.86,2.89 -0.65,0.03 -0.98,0.59 -0.96,1.63 -2.66,2.26 -0.24,0.08 -0.28,-0.16 -0.03,-0.13 0.04,-0.24 l 48.9,-49.54 q 15.34,-15.37 30.06,-30.34 1.38,-1.41 1.43,-3.36 0.27,-10.51 0.21,-21.01 a 0.5,0.49 -23 0 0 -0.85,-0.34 l -54.81,55.24 -188.47,192.91 -0.34,-0.55 q -0.23,-0.37 0.05,-0.7 l 2.2,-2.55 q 0.22,-0.25 0.01,-0.51 L 324,451.38 q -0.32,-0.39 -0.38,-0.88 l -0.4,-3.24 q -0.08,-0.6 -0.67,-0.76 l -6.43,-1.66 q -0.43,-0.11 -0.78,0.16 -0.59,0.46 -1.6,0.45 L 460.25,294.56 q 48.73,-48.92 97.35,-97.96 2.74,-2.77 9.46,-8.76 1.98,-1.48 2.9,-1.12 0.44,0.18 0.9,0.06 3.15,-0.79 6.38,-0.64 4.29,0.19 5.96,-0.09 3.34,-0.57 6.49,-1.51 z"
         id="path1612"
         style="fill:#412570;fill-opacity:1" /><path
         fill="#c1f6e9"
         d="m 534.82,262.96 q -5.94,-3.07 -11.06,-1.17 -1.45,0.54 -4.7,-0.2 a 1.01,0.88 42.5 0 0 -0.41,-0.01 l -7.79,1.57 54.81,-55.24 a 0.5,0.49 -23 0 1 0.85,0.34 q 0.06,10.5 -0.21,21.01 -0.05,1.95 -1.43,3.36 -14.72,14.97 -30.06,30.34 z"
         id="path1614" /><path
         fill="#c1f6e9"
         d="m 367.33,215.81 -54.54,54.85 a 2.21,2.21 0 0 1 -1.55,0.66 l -21.29,0.17 q -1.7,0.01 -0.5,-1.2 l 57.2,-57.55 q 0.59,0.67 2.22,-0.38 1.05,-0.68 1.96,-0.79 2.66,-0.34 5.32,-0.03 2,0.23 4.92,1.74 3.15,1.62 6.26,2.53 z"
         id="path1616" /><path
         fill="#c1f6e9"
         d="m 450.7,217.69 -53.35,53.4 q -0.36,0.36 -0.88,0.36 l -22.19,0.02 a 0.32,0.31 21.9 0 1 -0.23,-0.53 l 55.78,-56.39 2.91,1.4 a 1.08,1.07 52 0 0 0.71,0.09 q 2.78,-0.62 5.56,-1 0.09,-0.01 3.34,-0.77 2.67,-0.63 5.26,0.71 0.22,0.12 0.34,0.05 0.11,-0.06 0.15,-0.21 0.03,-0.13 0.16,-0.08 1.84,0.74 2.44,2.95 z"
         id="path1618" /><path
         fill="#c1f6e9"
         d="m 275.74,221.77 -41.69,41.98 a 0.31,0.3 68.3 0 1 -0.52,-0.23 l 0.12,-22.66 q 0.01,-1.25 0.91,-2.13 l 19.32,-18.89 q 2.78,0.17 5.55,-1.01 2.95,-1.27 4.36,-1.34 3.32,-0.16 6.46,0.93 c 2.05,0.71 4.55,0.72 5.49,3.35 z"
         id="path1620" /><path
         fill="#c1f6e9"
         d="m 373.88,228.08 q 2.53,2.01 5.51,2 7.66,0 13.93,2.45 l -38.6,38.53 a 1.41,1.4 -67 0 1 -0.98,0.4 l -21.98,-0.04 q -0.57,0 -0.17,-0.41 z"
         id="path1622" /><path
         fill="#c1f6e9"
         d="m 477.32,234 -46.75,46.77 a 1.64,1.63 48.4 0 1 -2.44,-0.15 q -4.67,-5.94 -12.01,-7.79 a 0.76,0.76 0 0 1 -0.35,-1.27 l 32.2,-32.25 q 4.88,0.13 8.3,-3.57 a 1.59,1.56 15.5 0 1 0.83,-0.46 q 6.86,-1.43 10.65,-1.69 5.07,-0.34 8.24,-1.11 0.35,-0.09 0.5,0.02 0.1,0.09 0.13,0.24 0.04,0.17 0.21,0.12 l 0.35,-0.11 q 0.36,-0.11 0.3,0.26 z"
         id="path1624" /><path
         fill="#c1f6e9"
         d="m 291.23,248.98 -22.04,22.21 a 0.9,0.88 21.6 0 1 -0.64,0.27 l -19.82,0.09 q -3,0.02 -0.88,-2.11 l 25.94,-26.01 q 9.01,-0.99 17.44,5.55 z"
         id="path1626" /><path
         fill="#23e6cf"
         d="M 486.2,355.33 317.75,527.8 q -1.07,-0.11 -1.55,-0.65 -0.3,-0.34 -0.72,-0.49 l -12.11,-4.42 q -0.45,-0.17 -0.59,-0.63 l -0.75,-2.42 242.04,-245.83 21.76,-22.08 q 1.02,-1.04 1,0.42 l -0.34,20.43 a 2.96,2.94 -22.5 0 1 -0.84,2.01 c -14.47,14.72 -28.51,29.94 -43.13,44.52 q -18.27,18.2 -36.32,36.67 z"
         id="path1628" /><path
         fill="#23e6cf"
         d="m 534.82,262.96 -48.9,49.54 c -67.49,69.33 -125.95,129.6 -203.17,207.6 -1,0.23 -1.47,0.59 -2.22,1.49 q -0.81,0.97 -2.13,0.14 -0.42,-0.27 -0.92,-0.23 -7.52,0.69 -13.46,-0.39 -1.74,-0.32 -4.02,-1.92 l 62.39,-63.13 188.47,-192.91 7.79,-1.57 a 1.01,0.88 42.5 0 1 0.41,0.01 q 3.25,0.74 4.7,0.2 5.12,-1.9 11.06,1.17 z"
         id="path1630" /><path
         fill="#412570"
         d="m 544.07,273.36 -242.04,245.83 -29.91,30.3 -21.93,22.53 -16.09,16.34 a 2.03,2.02 67.3 0 0 -0.58,1.42 l -0.1,21.71 a 0.47,0.47 0 0 0 0.8,0.34 l 34.67,-34.21 22.74,-23.03 26.12,-26.79 168.45,-172.47 q 1.09,-0.36 1.6,-0.26 0.42,0.08 0.66,-0.28 0.61,-0.9 1.24,-1.73 0.97,-1.26 2.35,-1.47 2.03,-0.31 2.11,-0.33 3.56,-1.07 7.24,-1.7 0.59,-0.1 0.99,0.34 1.18,1.29 2.83,1.57 0.72,0.12 0.3,0.71 -4.06,5.69 -5.93,7.59 -7.55,7.69 -14.21,16.14 -0.62,0.78 -0.57,1.4 0.05,0.54 0.39,0.97 0.23,0.29 0.31,0.64 0.56,2.37 2.6,3.74 0.44,0.3 0.94,0.1 1.56,-0.64 2.72,0.71 a 1.98,1.97 -35.9 0 0 2.53,0.4 q 4.02,-2.5 6.52,-6 3.7,-5.18 8.93,-8.64 3.36,-2.21 5.15,-4 c 3.46,-3.46 7.8,-8.79 12.07,-11.05 q 2.09,-1.1 4.32,-2.02 -70.35,71.03 -140.38,142.33 c -1.24,1.26 -4.44,4.72 -4.67,6.41 -0.25,1.76 1.17,2.44 2.76,2.46 q 90.62,1.1 181.25,1.07 c 4.09,0 8.66,-0.4 12.23,1 q 6.99,2.74 7.03,11.56 0.32,65.41 0.06,105.39 c -0.05,7.48 -0.14,12.69 -7.67,16.35 q -2.09,1.01 -5.49,1.01 -176.21,0.09 -352.41,-0.18 -8,-0.01 -11.51,-6.74 -1.26,-2.41 -1.28,-6.38 -0.31,-63.73 0.05,-127.44 c 0.04,-7.31 1.53,-8.75 6.27,-13.71 q 38.78,-40.51 78.23,-80.37 0.77,0.31 0.62,0.72 -0.73,2.12 -2.76,3.67 -0.33,0.25 -0.04,0.54 1.54,1.55 3.8,0.87 0.39,-0.12 0.7,0.14 l 0.63,0.51 a 0.33,0.32 -80.6 0 0 0.51,-0.37 q -0.24,-0.63 0.3,-0.97 1.58,-0.99 3.16,-1.99 0.39,-0.25 0.53,0.19 0.07,0.24 0.19,0.41 0.29,0.43 0.73,0.17 2.81,-1.61 3.31,-3.18 1.05,-3.32 3.43,-5.88 0.23,-0.24 0.51,-0.05 l 1.43,0.97 q 0.44,0.31 0.81,-0.08 1.49,-1.55 3.08,-3.03 0.29,-0.27 0.7,-0.29 l 2.09,-0.09 q 0.63,-0.03 0.63,-0.67 v -1.05 q 0,-0.56 0.51,-0.79 3.6,-1.68 4.73,-2.93 4.63,-5.13 9.88,-9.59 1.83,-1.56 4.71,-2.81 2.6,-1.12 5.06,-2.54 0.43,-0.24 0.89,-0.07 c 1.71,0.63 2.43,2.03 3.77,2.71 q 0.98,0.51 1.97,0.66 a 0.36,0.36 0 0 1 0.21,0.59 q -2.59,2.9 -4.48,5.17 -1.39,1.67 -1.33,2.38 L 234.32,502.3 q -0.59,0.61 -0.59,1.46 l -0.07,22.75 a 0.27,0.26 68.9 0 0 0.44,0.2 q 4.51,-4.14 8.68,-8.43 18.09,-18.59 36.46,-36.9 c 11.81,-11.8 23.05,-23.91 34.5,-35.93 q 1.01,0.01 1.6,-0.45 0.35,-0.27 0.78,-0.16 l 6.43,1.66 q 0.59,0.16 0.67,0.76 l 0.4,3.24 q 0.06,0.49 0.38,0.88 l 0.31,0.37 q 0.21,0.26 -0.01,0.51 l -2.2,2.55 q -0.28,0.33 -0.05,0.7 l 0.34,0.55 -62.39,63.13 q -12.29,12.36 -24.45,25.11 c -0.84,0.88 -1.79,2.59 -1.83,4.1 q -0.22,10.33 -0.14,20.13 0.01,1.16 0.83,0.33 l 48.34,-48.76 c 77.22,-78 135.68,-138.27 203.17,-207.6 q -0.07,0.11 -0.04,0.24 0.04,0.24 0.28,0.16 1.7,-0.63 2.66,-2.26 0.33,-0.56 0.98,-0.59 3.53,-0.15 7.86,-2.89 4.17,-2.63 5.88,-4.23 0.35,-0.33 0.82,-0.4 2.53,-0.39 4.18,-2.14 c 2.43,-2.59 5.08,-4.86 7.63,-7.31 q 0.8,-0.77 3.61,-2.58 c 2.64,-1.71 3.7,-4.59 5.5,-6.45 q 5.05,-5.19 7.57,-6.69 3.17,-1.9 6.01,-4.22 1.42,-1.16 3.03,0.26 0.39,0.33 0.79,0.03 1.09,-0.84 1.39,-0.07 z M 299.63,564.97 c -16.77,16.57 -33.39,33.86 -50.16,49.88 a 0.81,0.81 0 0 0 0.56,1.4 l 21.71,-0.06 a 2.26,2.24 -67.1 0 0 1.58,-0.65 l 44,-43.77 42.69,-44.06 a 0.55,0.55 0 0 0 -0.29,-0.92 q -8.53,-1.54 -12.31,-9.27 a 0.45,0.45 0 0 0 -0.71,-0.13 q -7.42,6.92 -14.44,14.11 c -10.89,11.14 -22.05,22.04 -32.63,33.47 z m 80.68,5.38 -43.98,44.26 q -1.55,1.56 0.65,1.56 l 21.1,-0.03 a 3.84,3.82 22.4 0 0 2.71,-1.12 l 37.49,-37.64 49.22,-49.15 a 0.34,0.34 0 0 0 -0.24,-0.58 l -23.35,0.1 a 2.21,2.18 21.9 0 0 -1.53,0.64 z m 54.19,-10.73 -54.9,55.05 q -1.57,1.57 0.66,1.57 l 21.97,0.02 a 1.64,1.61 -67.1 0 0 1.15,-0.48 l 48.35,-48.46 38.94,-39.31 a 0.18,0.17 -67.2 0 0 -0.12,-0.3 l -22.07,-0.24 a 3.28,3.25 22.7 0 0 -2.32,0.94 z m -77.7,-9.46 q -28.73,29.05 -57.79,58.44 c -1.66,1.68 -4.8,4.17 -6.64,6.88 a 0.48,0.47 17.4 0 0 0.39,0.74 l 21.72,0.05 q 1.63,0 2.78,-1.15 l 55.5,-55.62 31.18,-31.22 a 0.28,0.27 22.3 0 0 -0.2,-0.47 h -24.01 a 0.73,0.72 22.2 0 0 -0.51,0.21 z m 109.89,20.76 -44.34,44.71 a 0.38,0.37 22.3 0 0 0.27,0.64 q 9.99,0.01 20.13,-0.07 c 2.32,-0.02 3.54,0.08 5.29,-1.66 7.26,-7.19 14.1,-14.71 21.54,-21.78 q 8.56,-8.14 16.69,-16.71 l 46.95,-47.5 q 0.56,-0.57 -0.24,-0.58 l -22.4,-0.33 a 2.35,2.35 0 0 0 -1.72,0.7 z m 42.75,0.67 q -15.37,15.47 -30.67,31.1 c -3.85,3.94 -8.78,8.01 -13.04,12.28 a 0.76,0.76 0 0 0 0.54,1.3 l 20.7,-0.03 a 4.76,4.74 22.3 0 0 3.37,-1.4 l 39.57,-39.7 35.06,-34.98 a 4.42,4.39 67.7 0 0 1.3,-3.13 l -0.01,-8.66 q 0,-0.64 -0.64,-0.65 l -12,-0.03 q -0.59,0 -1.01,0.42 z m 56.23,-12.7 -57.06,56.22 a 0.85,0.83 51.5 0 0 -0.11,1.07 q 0.05,0.09 0.33,0.23 0.16,0.08 0.37,0.07 10.08,-0.23 20.19,-0.4 c 2.45,-0.04 3.9,-1.35 5.47,-2.97 q 13.46,-13.91 27.06,-27.68 1.92,-1.93 3.63,-4.15 a 1.4,1.39 -25 0 0 0.29,-0.79 l 0.82,-21.17 a 0.58,0.58 0 0 0 -0.99,-0.43 z m 1,43.9 a 0.89,0.89 0 0 0 -1.49,-0.68 l -13.35,12.58 a 0.89,0.89 0 0 0 0.59,1.53 l 12.8,0.21 a 0.89,0.89 0 0 0 0.9,-0.85 z"
         id="path1632" /><path
         fill="#23e6cf"
         d="M 460.25,294.56 313.74,445.45 c -11.45,12.02 -22.69,24.13 -34.5,35.93 q -18.37,18.31 -36.46,36.9 -4.17,4.29 -8.68,8.43 a 0.27,0.26 68.9 0 1 -0.44,-0.2 l 0.07,-22.75 q 0,-0.85 0.59,-1.46 l 111.72,-114.06 90.43,-92.75 0.3,0.2 q 0.24,0.16 0.44,-0.05 0.79,-0.83 1.65,-1.6 c 1.48,-1.33 5.18,-1.4 7.14,-1.59 q 0.18,-0.02 0.17,-0.19 -0.01,-0.21 0,-0.38 0.01,-0.25 0.25,-0.22 l 13.58,1.63 q 0.58,0.07 0.13,0.45 -0.23,0.19 -0.39,0.01 -0.09,-0.11 -0.11,0.04 -0.1,0.75 0.62,0.77 z"
         id="path1634" /><path
         fill="#36a5c6"
         d="m 317.32,571.77 q -1.88,-0.57 -3.57,-1.22 -1.62,-0.61 -3.61,-1.02 -5.73,-1.2 -10.51,-4.56 c 10.58,-11.43 21.74,-22.33 32.63,-33.47 q 7.02,-7.19 14.44,-14.11 a 0.45,0.45 0 0 1 0.71,0.13 q 3.78,7.73 12.31,9.27 a 0.55,0.55 0 0 1 0.29,0.92 z"
         id="path1636" /><path
         fill="#32b5ca"
         d="m 260,519.19 q 2.28,1.6 4.02,1.92 5.94,1.08 13.46,0.39 0.5,-0.04 0.92,0.23 1.32,0.83 2.13,-0.14 c 0.75,-0.9 1.22,-1.26 2.22,-1.49 l -48.34,48.76 q -0.82,0.83 -0.83,-0.33 -0.08,-9.8 0.14,-20.13 c 0.04,-1.51 0.99,-3.22 1.83,-4.1 Q 247.71,531.55 260,519.19 Z"
         id="path1638" /><path
         fill="#32b5ca"
         d="m 302.03,519.19 0.75,2.42 q 0.14,0.46 0.59,0.63 l 12.11,4.42 q 0.42,0.15 0.72,0.49 0.48,0.54 1.55,0.65 l -26.12,26.79 q -5.76,-1.55 -11.16,-3.69 c -2.79,-1.11 -5.38,-0.72 -8.35,-1.41 z"
         id="path1640" /><path
         fill="#36a5c6"
         d="m 398.28,577.38 -17.97,-7.03 42.07,-41.96 a 2.21,2.18 21.9 0 1 1.53,-0.64 l 23.35,-0.1 a 0.34,0.34 0 0 1 0.24,0.58 z"
         id="path1642" /><path
         fill="#32b5ca"
         d="m 451.73,567.32 -10.1,-3.23 a 0.88,0.65 -8.3 0 1 -0.13,-0.07 l -7,-4.4 31.66,-31.21 a 3.28,3.25 22.7 0 1 2.32,-0.94 l 22.07,0.24 a 0.18,0.17 -67.2 0 1 0.12,0.3 z"
         id="path1644" /><path
         fill="#32b5ca"
         d="m 372.76,559.5 -15.96,-9.34 22.42,-22.14 a 0.73,0.72 22.2 0 1 0.51,-0.21 h 24.01 a 0.28,0.27 22.3 0 1 0.2,0.47 z"
         id="path1646" /><path
         fill="#36a5c6"
         d="m 486.27,576.05 -5.99,-2.9 q -0.04,-0.02 -0.08,-0.01 -0.15,0.03 -0.24,0.17 -0.14,0.22 -0.38,0.13 -6.22,-2.3 -12.89,-2.52 l 42.17,-42.58 a 2.35,2.35 0 0 1 1.72,-0.7 l 22.4,0.33 q 0.8,0.01 0.24,0.58 z"
         id="path1648" /><path
         fill="#32b5ca"
         d="m 529.91,575.14 q -9.53,-2.51 -13.93,-3.34 -2.27,-0.43 -6.54,-0.21 l 43.17,-43.48 q 0.42,-0.42 1.01,-0.42 l 12,0.03 q 0.64,0.01 0.64,0.65 l 0.01,8.66 a 4.42,4.39 67.7 0 1 -1.3,3.13 z"
         id="path1650" /><path
         fill="#4c82c0"
         d="m 272.12,549.49 c 2.97,0.69 5.56,0.3 8.35,1.41 q 5.4,2.14 11.16,3.69 l -22.74,23.03 q -3.18,0.2 -6.57,-0.49 -1.53,-0.32 -3.4,-1.43 c -3.04,-1.81 -6.02,-1.59 -8.73,-3.68 z"
         id="path1652" /><path
         fill="#6756b4"
         d="m 356.8,550.16 15.96,9.34 -55.5,55.62 q -1.15,1.15 -2.78,1.15 l -21.72,-0.05 a 0.48,0.47 17.4 0 1 -0.39,-0.74 c 1.84,-2.71 4.98,-5.2 6.64,-6.88 q 29.06,-29.39 57.79,-58.44 z"
         id="path1654" /><path
         fill="#6756b4"
         d="m 508.61,615.11 57.06,-56.22 a 0.58,0.58 0 0 1 0.99,0.43 l -0.82,21.17 a 1.4,1.39 -25 0 1 -0.29,0.79 q -1.71,2.22 -3.63,4.15 -13.6,13.77 -27.06,27.68 c -1.57,1.62 -3.02,2.93 -5.47,2.97 q -10.11,0.17 -20.19,0.4 -0.21,0.01 -0.37,-0.07 -0.28,-0.14 -0.33,-0.23 a 0.85,0.83 51.5 0 1 0.11,-1.07 z"
         id="path1656" /><path
         fill="#6756b4"
         d="m 434.5,559.62 7,4.4 a 0.88,0.65 -8.3 0 0 0.13,0.07 l 10.1,3.23 -48.35,48.46 a 1.64,1.61 -67.1 0 1 -1.15,0.48 l -21.97,-0.02 q -2.23,0 -0.66,-1.57 z"
         id="path1658" /><path
         fill="#6756b4"
         d="m 299.63,564.97 q 4.78,3.36 10.51,4.56 1.99,0.41 3.61,1.02 1.69,0.65 3.57,1.22 l -44,43.77 a 2.26,2.24 -67.1 0 1 -1.58,0.65 l -21.71,0.06 a 0.81,0.81 0 0 1 -0.56,-1.4 c 16.77,-16.02 33.39,-33.31 50.16,-49.88 z"
         id="path1660" /><path
         fill="#6756b4"
         d="m 380.31,570.35 17.97,7.03 -37.49,37.64 a 3.84,3.82 22.4 0 1 -2.71,1.12 l -21.1,0.03 q -2.2,0 -0.65,-1.56 z"
         id="path1662" /><path
         fill="#6756b4"
         d="m 486.27,576.05 q -8.13,8.57 -16.69,16.71 c -7.44,7.07 -14.28,14.59 -21.54,21.78 -1.75,1.74 -2.97,1.64 -5.29,1.66 q -10.14,0.08 -20.13,0.07 a 0.38,0.37 22.3 0 1 -0.27,-0.64 l 44.34,-44.71 q 6.67,0.22 12.89,2.52 0.24,0.09 0.38,-0.13 0.09,-0.14 0.24,-0.17 0.04,-0.01 0.08,0.01 z"
         id="path1664" /><path
         fill="#6756b4"
         d="m 529.91,575.14 -39.57,39.7 a 4.76,4.74 22.3 0 1 -3.37,1.4 l -20.7,0.03 a 0.76,0.76 0 0 1 -0.54,-1.3 c 4.26,-4.27 9.19,-8.34 13.04,-12.28 q 15.3,-15.63 30.67,-31.1 4.27,-0.22 6.54,0.21 4.4,0.83 13.93,3.34 z"
         id="path1666" /><path
         fill="#6756b4"
         d="m 250.19,572.02 c 2.71,2.09 5.69,1.87 8.73,3.68 q 1.87,1.11 3.4,1.43 3.39,0.69 6.57,0.49 l -34.67,34.21 a 0.47,0.47 0 0 1 -0.8,-0.34 l 0.1,-21.71 a 2.03,2.02 67.3 0 1 0.58,-1.42 z"
         id="path1668" /><path
         fill="#6756b4"
         d="m 566.67,602.79 -0.55,12.79 a 0.89,0.89 0 0 1 -0.9,0.85 l -12.8,-0.21 a 0.89,0.89 0 0 1 -0.59,-1.53 l 13.35,-12.58 a 0.89,0.89 0 0 1 1.49,0.68 z"
         id="path1670" /></g></g></svg>
